<svg xmlns="http://www.w3.org/2000/svg" xml:space="preserve" id="Layer_1" x="0" y="0" style="enable-background:new 0 0 192 192" version="1.1" viewBox="0 0 192 192"><style>.st0{fill:#4c4cff}</style><path d="M171.1 156c2.4-2.9.2-7.1-3.5-7.2-48.3-.8-88.6.1-138.5 3.1-3.8.2-5.7 4.5-3.2 7.3A95.02 95.02 0 0 0 97 191c29.9 0 56.6-13.6 74.1-35z" class="st0"/><path d="M191.8 107.7c.6-5-3.3-9.3-8.3-9.7-61.5-4.9-109.5-5.7-173-2.4-5.1.3-9.1 4.4-8.6 9.5.7 7.1 2.1 14 4.3 20.6 1.2 3.8 5 6.1 9 6 59.7-2.1 106-2.2 163.9-.7 4 .1 7.7-2.3 8.9-6.1 1.8-5.5 3.1-11.3 3.8-17.2z" style="fill:#e33cd5"/><path d="M9 78c12.7-9.5 18-12.8 30.7-3.3s25.5 9.5 38.2 0 25.5-9.5 38.2 0 22.4 9.5 35.1 0c12.7-9.5 18.6-8.3 29.6 3.6" style="fill:none;stroke:#0cc;stroke-width:11.1931;stroke-linecap:round;stroke-miterlimit:10"/><path d="M14.1 48.8c-1.9 3.2.9 7 4.6 6.5 55.2-6.6 95.9-8.6 153.7-5.1 3.8.2 6.3-3.7 4.2-6.8A95.76 95.76 0 0 0 97 1a95.6 95.6 0 0 0-82.9 47.8z" class="st0"/></svg>