<?xml version="1.0" standalone="no"?>
<!DOCTYPE svg PUBLIC "-//W3C//DTD SVG 20010904//EN"
 "http://www.w3.org/TR/2001/REC-SVG-20010904/DTD/svg10.dtd">
<svg version="1.0" xmlns="http://www.w3.org/2000/svg"
 width="700.000000pt" height="700.000000pt" viewBox="0 0 700.000000 700.000000"
 preserveAspectRatio="xMidYMid meet">
<metadata>
Created by potrace 1.14, written by Peter Selinger 2001-2017
</metadata>
<g transform="translate(0.000000,700.000000) scale(0.100000,-0.100000)"
fill="#000000" stroke="none">
<path d="M3447 6964 c-1 -1 -57 -5 -123 -8 -67 -4 -132 -9 -145 -11 -24 -3
-104 -13 -166 -20 -18 -2 -59 -9 -90 -15 -32 -6 -71 -14 -88 -16 -55 -9 -299
-75 -385 -104 -193 -65 -392 -148 -527 -221 -123 -66 -169 -92 -195 -110 -14
-11 -29 -19 -32 -19 -9 0 -196 -129 -286 -198 -170 -131 -359 -309 -507 -477
-194 -222 -413 -551 -413 -620 0 -44 36 -107 75 -134 46 -31 89 -32 300 -6 17
2 57 7 90 10 33 4 71 8 85 10 24 4 63 8 190 21 30 3 66 7 80 9 25 4 119 13
195 20 22 2 65 6 95 9 30 3 80 9 110 11 30 3 73 8 95 10 22 3 72 7 110 10 39
3 90 8 115 10 25 2 79 6 120 10 41 3 95 8 120 10 43 4 125 10 270 20 184 13
221 16 285 20 94 6 305 17 385 20 36 2 157 7 270 11 260 11 1557 11 1835 1
116 -5 248 -10 295 -12 97 -4 317 -15 405 -20 287 -17 311 -17 348 -1 72 30
118 116 98 183 -21 70 -199 304 -371 487 -84 89 -212 213 -271 262 -26 22 -57
48 -70 59 -426 356 -1018 630 -1574 729 -16 3 -41 8 -55 11 -27 6 -58 10 -135
20 -27 3 -64 8 -80 10 -67 9 -450 25 -458 19z"/>
<path d="M3429 4736 c-2 -2 -29 -6 -60 -9 -96 -9 -244 -56 -376 -118 -72 -34
-137 -75 -348 -220 -98 -67 -246 -132 -354 -155 -72 -15 -208 -13 -295 5 -159
32 -238 72 -510 258 -115 78 -219 131 -311 159 -206 61 -399 31 -619 -95 -50
-29 -219 -141 -226 -150 -3 -4 -27 -22 -55 -41 -145 -96 -186 -204 -120 -316
42 -71 108 -105 189 -98 26 2 56 9 69 15 22 12 187 129 197 139 15 17 145 96
210 128 66 32 84 36 150 37 66 0 84 -4 152 -37 43 -20 138 -79 212 -131 197
-138 348 -212 524 -257 112 -28 154 -33 277 -33 128 0 192 7 296 33 175 45
291 101 504 246 208 141 336 201 475 225 61 11 189 12 235 4 177 -34 294 -88
485 -225 369 -264 652 -337 990 -253 144 35 300 116 510 263 373 261 454 258
744 -33 137 -138 196 -160 306 -114 91 39 136 151 101 251 -33 95 -307 342
-466 421 -114 56 -183 73 -292 73 -172 0 -318 -55 -539 -204 -71 -48 -164
-111 -208 -140 -215 -145 -432 -178 -626 -97 -99 42 -128 59 -356 215 -186
127 -376 209 -564 243 -42 8 -295 17 -301 11z"/>
<path d="M2347 3584 c-1 -1 -153 -5 -337 -9 -184 -4 -382 -8 -440 -10 -245 -8
-548 -20 -760 -30 -58 -3 -152 -7 -210 -10 -278 -13 -302 -17 -375 -59 -110
-65 -162 -170 -152 -310 14 -195 64 -449 133 -673 45 -146 84 -197 186 -247
l73 -36 245 5 c135 3 290 8 345 9 55 2 217 7 360 11 143 4 310 8 370 10 481
14 1132 20 2150 20 1089 -1 1453 -4 2155 -21 135 -3 297 -7 360 -8 64 -2 138
2 166 9 108 25 196 101 235 204 24 63 104 374 113 438 3 24 10 71 16 105 30
177 6 270 -94 361 -64 58 -136 81 -291 92 -76 5 -119 8 -267 20 -35 3 -99 7
-143 10 -76 5 -102 7 -275 20 -75 5 -164 10 -335 20 -49 3 -124 7 -165 10
-141 8 -255 15 -375 20 -66 3 -158 8 -205 10 -47 2 -159 7 -250 10 -91 3 -205
8 -255 10 -269 11 -693 18 -1298 19 -373 1 -679 1 -680 0z"/>
<path d="M4337 1584 c-1 -1 -193 -5 -427 -9 -234 -4 -474 -8 -535 -10 -178 -5
-500 -15 -635 -20 -284 -11 -390 -16 -680 -30 -52 -2 -151 -7 -220 -10 -69 -3
-161 -8 -205 -10 -44 -3 -118 -7 -165 -10 -370 -19 -443 -25 -478 -42 -83 -39
-112 -156 -58 -231 37 -52 205 -220 321 -321 154 -135 378 -297 505 -367 19
-10 37 -21 40 -24 17 -17 291 -152 393 -195 498 -205 1004 -291 1552 -262 131
7 151 10 335 37 183 28 513 109 600 146 8 4 20 8 25 10 20 5 194 73 241 94
478 216 865 500 1211 889 46 52 90 106 98 121 39 76 11 167 -65 209 -40 22
-55 24 -224 28 -183 4 -1625 10 -1629 7z"/>
</g>
</svg>
