<svg xmlns="http://www.w3.org/2000/svg" width="40" height="40" fill="none"><g stroke="#4C4CFF" stroke-linecap="round" stroke-linejoin="round" filter="url(#a)"><path d="M30.67 29.82c.5-.6.06-1.47-.73-1.48-7.06-.11-13.05.02-20.34.47-.79.05-1.2.94-.66 1.51a14.47 14.47 0 0 0 21.73-.5ZM7.07 12.16c-.4.67.17 1.45.95 1.36 8.1-.98 14.2-1.27 22.67-.77.78.05 1.3-.78.86-1.42A14.55 14.55 0 0 0 19.58 5a14.6 14.6 0 0 0-12.5 7.16Z"/></g><g stroke="#4C4CFF" stroke-linecap="round" stroke-linejoin="round" filter="url(#b)"><path d="M30.67 29.82c.5-.6.06-1.47-.73-1.48-7.06-.11-13.05.02-20.34.47-.79.05-1.2.94-.66 1.51a14.47 14.47 0 0 0 21.73-.5ZM7.07 12.16c-.4.67.17 1.45.95 1.36 8.1-.98 14.2-1.27 22.67-.77.78.05 1.3-.78.86-1.42A14.55 14.55 0 0 0 19.58 5a14.6 14.6 0 0 0-12.5 7.16Z"/></g><path stroke="#4C4CFF" stroke-linecap="round" stroke-linejoin="round" d="M30.67 29.82c.5-.6.06-1.47-.73-1.48-7.06-.11-13.05.02-20.34.47-.79.05-1.2.94-.66 1.51a14.47 14.47 0 0 0 21.73-.5ZM7.07 12.16c-.4.67.17 1.45.95 1.36 8.1-.98 14.2-1.27 22.67-.77.78.05 1.3-.78.86-1.42A14.55 14.55 0 0 0 19.58 5a14.6 14.6 0 0 0-12.5 7.16Z"/><path stroke="#fff" stroke-linecap="round" stroke-linejoin="round" stroke-width=".5" d="M30.67 29.82c.5-.6.06-1.47-.73-1.48-7.06-.11-13.05.02-20.34.47-.79.05-1.2.94-.66 1.51a14.47 14.47 0 0 0 21.73-.5ZM7.07 12.16c-.4.67.17 1.45.95 1.36 8.1-.98 14.2-1.27 22.67-.77.78.05 1.3-.78.86-1.42A14.55 14.55 0 0 0 19.58 5a14.6 14.6 0 0 0-12.5 7.16Z"/><g filter="url(#c)"><path stroke="#E33CD5" stroke-linecap="round" stroke-linejoin="round" d="M34.07 22.31c.16-1.04-.65-1.95-1.7-2.03-9.05-.73-16.24-.85-25.57-.36-1.06.05-1.9.93-1.77 1.98.1.84.27 1.65.5 2.44a1.85 1.85 0 0 0 1.87 1.28c8.86-.3 15.8-.33 24.4-.1.84.02 1.63-.48 1.86-1.3.18-.62.32-1.26.41-1.9Z"/></g><g filter="url(#d)"><path stroke="#E33CD5" stroke-linecap="round" stroke-linejoin="round" d="M34.07 22.31c.16-1.04-.65-1.95-1.7-2.03-9.05-.73-16.24-.85-25.57-.36-1.06.05-1.9.93-1.77 1.98.1.84.27 1.65.5 2.44a1.85 1.85 0 0 0 1.87 1.28c8.86-.3 15.8-.33 24.4-.1.84.02 1.63-.48 1.86-1.3.18-.62.32-1.26.41-1.9Z"/></g><path stroke="#E33CD5" stroke-linecap="round" stroke-linejoin="round" d="M34.07 22.31c.16-1.04-.65-1.95-1.7-2.03-9.05-.73-16.24-.85-25.57-.36-1.06.05-1.9.93-1.77 1.98.1.84.27 1.65.5 2.44a1.85 1.85 0 0 0 1.87 1.28c8.86-.3 15.8-.33 24.4-.1.84.02 1.63-.48 1.86-1.3.18-.62.32-1.26.41-1.9Z"/><path stroke="#fff" stroke-linecap="round" stroke-linejoin="round" stroke-width=".5" d="M34.07 22.31c.16-1.04-.65-1.95-1.7-2.03-9.05-.73-16.24-.85-25.57-.36-1.06.05-1.9.93-1.77 1.98.1.84.27 1.65.5 2.44a1.85 1.85 0 0 0 1.87 1.28c8.86-.3 15.8-.33 24.4-.1.84.02 1.63-.48 1.86-1.3.18-.62.32-1.26.41-1.9Z"/><g filter="url(#e)"><path stroke="#0CC" stroke-linecap="round" stroke-linejoin="round" d="M4.91 16.63c1.96-1.5 3.91-1.5 5.87 0 1.95 1.5 3.9 1.5 5.86 0 1.96-1.5 3.91-1.5 5.87 0 1.95 1.5 3.91 1.5 5.86 0 1.96-1.5 3.91-1.5 5.87 0"/></g><g filter="url(#f)"><path stroke="#0CC" stroke-linecap="round" stroke-linejoin="round" d="M4.91 16.63c1.96-1.5 3.91-1.5 5.87 0 1.95 1.5 3.9 1.5 5.86 0 1.96-1.5 3.91-1.5 5.87 0 1.95 1.5 3.91 1.5 5.86 0 1.96-1.5 3.91-1.5 5.87 0"/></g><path stroke="#0CC" stroke-linecap="round" stroke-linejoin="round" d="M4.91 16.63c1.96-1.5 3.91-1.5 5.87 0 1.95 1.5 3.9 1.5 5.86 0 1.96-1.5 3.91-1.5 5.87 0 1.95 1.5 3.91 1.5 5.86 0 1.96-1.5 3.91-1.5 5.87 0"/><path stroke="#fff" stroke-linecap="round" stroke-linejoin="round" stroke-width=".5" d="M4.91 16.63c1.96-1.5 3.91-1.5 5.87 0 1.95 1.5 3.9 1.5 5.86 0 1.96-1.5 3.91-1.5 5.87 0 1.95 1.5 3.91 1.5 5.86 0 1.96-1.5 3.91-1.5 5.87 0"/><g stroke="#4C4CFF" filter="url(#g)"><ellipse cx=".74" cy=".56" rx=".74" ry=".56" transform="matrix(.88109 .47296 .45642 -.88976 13.71 31.39)"/><ellipse cx="1.1" cy=".75" rx="1.1" ry=".75" transform="matrix(.96443 .26435 -.25339 .96736 25.09 8.75)"/><ellipse cx=".73" cy=".56" rx=".73" ry=".56" transform="matrix(.96443 -.26435 -.25339 -.96736 23.53 31.97)"/><ellipse cx="18.48" cy="10.25" rx="1.1" ry=".75" transform="rotate(180 18.48 10.25)"/><ellipse cx="1.1" cy=".75" rx="1.1" ry=".75" transform="matrix(.96443 .26435 -.25339 .96736 20.69 6.5)"/><ellipse cx=".73" cy=".56" rx=".73" ry=".56" transform="matrix(1 0 0 -1 18.84 33.13)"/><ellipse cx="1.11" cy=".75" rx="1.11" ry=".75" transform="matrix(.88109 -.47296 .45642 .88976 12.24 9.05)"/></g><g stroke="#4C4CFF" filter="url(#h)"><ellipse cx=".74" cy=".56" rx=".74" ry=".56" transform="matrix(.88109 .47296 .45642 -.88976 13.71 31.39)"/><ellipse cx="1.1" cy=".75" rx="1.1" ry=".75" transform="matrix(.96443 .26435 -.25339 .96736 25.09 8.75)"/><ellipse cx=".73" cy=".56" rx=".73" ry=".56" transform="matrix(.96443 -.26435 -.25339 -.96736 23.53 31.97)"/><ellipse cx="18.48" cy="10.25" rx="1.1" ry=".75" transform="rotate(180 18.48 10.25)"/><ellipse cx="1.1" cy=".75" rx="1.1" ry=".75" transform="matrix(.96443 .26435 -.25339 .96736 20.69 6.5)"/><ellipse cx=".73" cy=".56" rx=".73" ry=".56" transform="matrix(1 0 0 -1 18.84 33.13)"/><ellipse cx="1.11" cy=".75" rx="1.11" ry=".75" transform="matrix(.88109 -.47296 .45642 .88976 12.24 9.05)"/></g><ellipse cx=".74" cy=".56" stroke="#4C4CFF" rx=".74" ry=".56" transform="matrix(.88109 .47296 .45642 -.88976 13.71 31.39)"/><ellipse cx="1.1" cy=".75" stroke="#4C4CFF" rx="1.1" ry=".75" transform="matrix(.96443 .26435 -.25339 .96736 25.09 8.75)"/><ellipse cx=".73" cy=".56" stroke="#4C4CFF" rx=".73" ry=".56" transform="matrix(.96443 -.26435 -.25339 -.96736 23.53 31.97)"/><ellipse cx="18.48" cy="10.25" stroke="#4C4CFF" rx="1.1" ry=".75" transform="rotate(180 18.48 10.25)"/><ellipse cx="1.1" cy=".75" stroke="#4C4CFF" rx="1.1" ry=".75" transform="matrix(.96443 .26435 -.25339 .96736 20.69 6.5)"/><ellipse cx=".73" cy=".56" stroke="#4C4CFF" rx=".73" ry=".56" transform="matrix(1 0 0 -1 18.84 33.13)"/><ellipse cx="1.11" cy=".75" stroke="#4C4CFF" rx="1.11" ry=".75" transform="matrix(.88109 -.47296 .45642 .88976 12.24 9.05)"/><ellipse cx=".74" cy=".56" stroke="#fff" stroke-width=".5" rx=".74" ry=".56" transform="matrix(.88109 .47296 .45642 -.88976 13.71 31.39)"/><ellipse cx="1.1" cy=".75" stroke="#fff" stroke-width=".5" rx="1.1" ry=".75" transform="matrix(.96443 .26435 -.25339 .96736 25.09 8.75)"/><ellipse cx=".73" cy=".56" stroke="#fff" stroke-width=".5" rx=".73" ry=".56" transform="matrix(.96443 -.26435 -.25339 -.96736 23.53 31.97)"/><ellipse cx="18.48" cy="10.25" stroke="#fff" stroke-width=".5" rx="1.1" ry=".75" transform="rotate(180 18.48 10.25)"/><ellipse cx="1.1" cy=".75" stroke="#fff" stroke-width=".5" rx="1.1" ry=".75" transform="matrix(.96443 .26435 -.25339 .96736 20.69 6.5)"/><ellipse cx=".73" cy=".56" stroke="#fff" stroke-width=".5" rx=".73" ry=".56" transform="matrix(1 0 0 -1 18.84 33.13)"/><ellipse cx="1.11" cy=".75" stroke="#fff" stroke-width=".5" rx="1.11" ry=".75" transform="matrix(.88109 -.47296 .45642 .88976 12.24 9.05)"/><defs><filter id="a" width="33.78" height="39" x="2.43" y=".5" color-interpolation-filters="sRGB" filterUnits="userSpaceOnUse"><feFlood flood-opacity="0" result="BackgroundImageFix"/><feBlend in="SourceGraphic" in2="BackgroundImageFix" result="shape"/><feGaussianBlur result="effect1_foregroundBlur_849_9587" stdDeviation="2"/></filter><filter id="b" width="33.78" height="39" x="2.43" y=".5" color-interpolation-filters="sRGB" filterUnits="userSpaceOnUse"><feFlood flood-opacity="0" result="BackgroundImageFix"/><feBlend in="SourceGraphic" in2="BackgroundImageFix" result="shape"/><feGaussianBlur result="effect1_foregroundBlur_849_9587" stdDeviation="2"/></filter><filter id="c" width="38.08" height="15" x=".52" y="15.13" color-interpolation-filters="sRGB" filterUnits="userSpaceOnUse"><feFlood flood-opacity="0" result="BackgroundImageFix"/><feBlend in="SourceGraphic" in2="BackgroundImageFix" result="shape"/><feGaussianBlur result="effect1_foregroundBlur_849_9587" stdDeviation="2"/></filter><filter id="d" width="38.08" height="15" x=".52" y="15.13" color-interpolation-filters="sRGB" filterUnits="userSpaceOnUse"><feFlood flood-opacity="0" result="BackgroundImageFix"/><feBlend in="SourceGraphic" in2="BackgroundImageFix" result="shape"/><feGaussianBlur result="effect1_foregroundBlur_849_9587" stdDeviation="2"/></filter><filter id="e" width="38.33" height="11.25" x=".41" y="11" color-interpolation-filters="sRGB" filterUnits="userSpaceOnUse"><feFlood flood-opacity="0" result="BackgroundImageFix"/><feBlend in="SourceGraphic" in2="BackgroundImageFix" result="shape"/><feGaussianBlur result="effect1_foregroundBlur_849_9587" stdDeviation="2"/></filter><filter id="f" width="38.33" height="11.25" x=".41" y="11" color-interpolation-filters="sRGB" filterUnits="userSpaceOnUse"><feFlood flood-opacity="0" result="BackgroundImageFix"/><feBlend in="SourceGraphic" in2="BackgroundImageFix" result="shape"/><feGaussianBlur result="effect1_foregroundBlur_849_9587" stdDeviation="2"/></filter><filter id="g" width="23.51" height="35.39" x="8.03" y="2.23" color-interpolation-filters="sRGB" filterUnits="userSpaceOnUse"><feFlood flood-opacity="0" result="BackgroundImageFix"/><feBlend in="SourceGraphic" in2="BackgroundImageFix" result="shape"/><feGaussianBlur result="effect1_foregroundBlur_849_9587" stdDeviation="2"/></filter><filter id="h" width="23.51" height="35.39" x="8.03" y="2.23" color-interpolation-filters="sRGB" filterUnits="userSpaceOnUse"><feFlood flood-opacity="0" result="BackgroundImageFix"/><feBlend in="SourceGraphic" in2="BackgroundImageFix" result="shape"/><feGaussianBlur result="effect1_foregroundBlur_849_9587" stdDeviation="2"/></filter></defs></svg>